<?xml version="1.0" encoding="UTF-8" standalone="no"?>
<svg
   xmlns:dc="http://purl.org/dc/elements/1.1/"
   xmlns:cc="http://creativecommons.org/ns#"
   xmlns:rdf="http://www.w3.org/1999/02/22-rdf-syntax-ns#"
   xmlns:svg="http://www.w3.org/2000/svg"
   xmlns="http://www.w3.org/2000/svg"
   xmlns:sodipodi="http://sodipodi.sourceforge.net/DTD/sodipodi-0.dtd"
   xmlns:inkscape="http://www.inkscape.org/namespaces/inkscape"
   viewBox="0 0 101.93502 42.575999"
   version="1.1"
   id="svg70"
   sodipodi:docname="Git-logo.svg"
   inkscape:version="1.0.1 (3bc2e813f5, 2020-09-07)"
   width="101.93501"
   height="42.576">
  <metadata
     id="metadata76">
    <rdf:RDF>
      <cc:Work
         rdf:about="">
        <dc:format>image/svg+xml</dc:format>
        <dc:type
           rdf:resource="http://purl.org/dc/dcmitype/StillImage" />
        <dc:title></dc:title>
      </cc:Work>
    </rdf:RDF>
  </metadata>
  <defs
     id="defs74">
    <marker
       markerWidth="102.48461"
       markerHeight="43.47374"
       refX="51.242306"
       refY="21.73687"
       orient="auto"
       id="marker581">
      <rect
         style="fill:#0000ff;fill-rule:evenodd"
         id="rect579"
         width="102.48461"
         height="43.47374"
         x="0"
         y="0" />
    </marker>
  </defs>
  <sodipodi:namedview
     pagecolor="#ffffff"
     bordercolor="#666666"
     borderopacity="1"
     objecttolerance="10"
     gridtolerance="10"
     guidetolerance="10"
     inkscape:pageopacity="0"
     inkscape:pageshadow="2"
     inkscape:window-width="1280"
     inkscape:window-height="987"
     id="namedview72"
     showgrid="false"
     inkscape:zoom="4.0262309"
     inkscape:cx="35.220611"
     inkscape:cy="56.9058"
     inkscape:window-x="1600"
     inkscape:window-y="0"
     inkscape:window-maximized="1"
     inkscape:current-layer="svg70"
     inkscape:lockguides="false"
     showguides="false" />
  <path
     fill="#413000"
     d="m 61.089217,14.491588 c -2.235008,0 -3.899351,1.097482 -3.899351,3.738755 0,1.990035 1.09694,3.371461 3.779094,3.371461 2.273202,0 3.817186,-1.339441 3.817186,-3.453663 0,-2.395895 -1.381686,-3.656426 -3.696929,-3.656426 z m -4.469962,18.649037 c -0.528878,0.649078 -1.055876,1.338734 -1.055876,2.152673 0,1.623756 2.070647,2.112402 4.915055,2.112402 2.356362,0 5.566001,-0.165002 5.566001,-2.355787 0,-1.302091 -1.544177,-1.382697 -3.495292,-1.505057 l -5.930058,-0.404231 z m 12.024756,-18.52616 c 0.730098,0.934634 1.503075,2.23489 1.503075,4.103591 0,4.509165 -3.534501,7.14968 -8.651993,7.14968 -1.301395,0 -2.479556,-0.162123 -3.210073,-0.36488 l -1.341062,2.152729 3.980779,0.243183 c 7.028668,0.447831 11.171145,0.651349 11.171145,6.052554 0,4.673116 -4.102151,7.312115 -11.171145,7.312115 -7.352781,0 -10.155825,-1.869002 -10.155825,-5.077911 0,-1.828847 0.81274,-2.801649 2.234562,-4.144296 -1.341032,-0.566884 -1.78733,-1.581931 -1.78733,-2.679275 0,-0.894377 0.446298,-1.70666 1.178733,-2.479061 0.730913,-0.771115 1.543101,-1.544057 2.518263,-2.437501 -1.990388,-0.974828 -3.493905,-3.087384 -3.493905,-6.09399 0,-4.671228 3.087821,-7.87937 9.302132,-7.87937 1.747176,0 2.80404,0.16083 3.73838,0.406078 h 7.922345 v 3.45219 l -3.738081,0.284458"
     id="path62"
     style="stroke-width:0.373436" />
  <path
     fill="#413000"
     d="m 79.532863,7.232121 c -2.316237,0 -3.656331,-1.3418062 -3.656331,-3.6582556 C 75.876532,1.2603234 77.216664,0 79.532863,0 c 2.356407,0 3.696834,1.2603234 3.696834,3.5738654 0,2.3164193 -1.340427,3.6582556 -3.696834,3.6582556 z m -5.241439,24.413296 v -3.207713 l 2.072523,-0.283528 c 0.568946,-0.0823 0.649723,-0.203354 0.649723,-0.814147 V 15.396655 c 0,-0.445982 -0.121354,-0.731543 -0.52882,-0.85245 l -2.193426,-0.772575 0.446649,-3.289391 h 8.410041 v 16.858066 c 0,0.651209 0.03941,0.731743 0.650125,0.814184 l 2.072125,0.283525 v 3.207703 H 74.291103"
     id="path64"
     style="stroke-width:0.373436" />
  <path
     fill="#413000"
     d="m 101.93483,30.071033 c -1.74782,0.852091 -4.306527,1.624105 -6.623118,1.624105 -4.833945,0 -6.661508,-1.948126 -6.661508,-6.540622 V 14.511779 c 0,-0.243243 0,-0.406433 -0.326354,-0.406433 h -2.843249 v -3.615395 c 3.576018,-0.407326 4.996849,-2.1951623 5.443877,-6.6231299 h 3.859687 v 5.7706093 c 0,0.2833246 0,0.4060666 0.325516,0.4060666 h 5.727559 v 4.061773 h -6.053075 v 9.708768 c 0,2.397195 0.569641,3.330756 2.762164,3.330756 1.138971,0 2.315614,-0.283515 3.290801,-0.649435 l 1.09789,3.57598"
     id="path66"
     style="stroke-width:0.373436" />
  <path
     fill="#f05133"
     d="M 41.741825,19.41 23.165612,0.83606886 c -1.068806,-1.0697981 -2.80376,-1.0697981 -3.873947,0 l -3.857148,3.85752824 4.89266,4.8926639 c 1.137445,-0.3840415 2.441156,-0.1265621 3.347386,0.779854 0.910941,0.912093 1.166585,2.226922 0.772932,3.368135 l 4.715657,4.71567 c 1.140835,-0.393116 2.457163,-0.139148 3.368143,0.773474 1.273607,1.273199 1.273607,3.33637 0,4.609937 -1.273802,1.274025 -3.336969,1.274025 -4.611479,0 -0.957663,-0.958399 -1.194515,-2.365435 -0.709478,-3.54539 l -4.397852,-4.397848 -3.79e-4,11.572937 c 0.310484,0.153718 0.603509,0.358844 0.86227,0.616503 1.273257,1.27308 1.273257,3.33586 0,4.61108 -1.273612,1.273046 -3.337697,1.273046 -4.610001,0 -1.27342,-1.275119 -1.27342,-3.337918 0,-4.61108 0.314752,-0.314162 0.678893,-0.551965 1.067405,-0.711325 V 15.687694 c -0.388725,-0.158666 -0.75243,-0.394711 -1.0676,-0.711348 -0.964589,-0.96384 -1.196873,-2.379494 -0.702186,-3.56397 L 13.538764,6.5884106 0.80259831,19.324221 c -1.07013108,1.070592 -1.07013108,2.805542 0,3.875424 L 19.377693,41.773668 c 1.069425,1.069776 2.80381,1.069776 3.874722,0 L 41.7416,23.287402 c 1.069816,-1.070322 1.069816,-2.805799 0,-3.875807"
     id="path68"
     style="stroke-width:0.373436" />
</svg>
